<svg width="80" height="80" viewBox="0 0 80 80" fill="none" xmlns="http://www.w3.org/2000/svg">
<g clip-path="url(#clip0_6_4)">
<path d="M30 39.1667C28.8949 39.1667 27.8351 39.6057 27.0537 40.3871C26.2723 41.1685 25.8333 42.2283 25.8333 43.3333C25.8333 44.4384 26.2723 45.4982 27.0537 46.2796C27.8351 47.061 28.8949 47.5 30 47.5C30.5472 47.5 31.089 47.3922 31.5945 47.1828C32.1 46.9734 32.5594 46.6665 32.9463 46.2796C33.3332 45.8927 33.6401 45.4334 33.8495 44.9278C34.0589 44.4223 34.1667 43.8805 34.1667 43.3333C34.1667 42.7862 34.0589 42.2443 33.8495 41.7388C33.6401 41.2333 33.3332 40.774 32.9463 40.3871C32.5594 40.0001 32.1 39.6932 31.5945 39.4838C31.089 39.2744 30.5472 39.1667 30 39.1667ZM50 39.1667C48.8949 39.1667 47.8351 39.6057 47.0537 40.3871C46.2723 41.1685 45.8333 42.2283 45.8333 43.3333C45.8333 44.4384 46.2723 45.4982 47.0537 46.2796C47.8351 47.061 48.8949 47.5 50 47.5C51.1051 47.5 52.1649 47.061 52.9463 46.2796C53.7277 45.4982 54.1667 44.4384 54.1667 43.3333C54.1667 42.2283 53.7277 41.1685 52.9463 40.3871C52.1649 39.6057 51.1051 39.1667 50 39.1667ZM40 6.66667C35.6226 6.66667 31.2881 7.52886 27.2439 9.20402C23.1997 10.8792 19.5251 13.3345 16.4298 16.4298C10.1786 22.681 6.66667 31.1594 6.66667 40C6.66667 48.8405 10.1786 57.319 16.4298 63.5702C19.5251 66.6655 23.1997 69.1208 27.2439 70.796C31.2881 72.4711 35.6226 73.3333 40 73.3333C48.8405 73.3333 57.319 69.8214 63.5702 63.5702C69.8214 57.319 73.3333 48.8405 73.3333 40C73.3333 35.6226 72.4711 31.2881 70.796 27.2439C69.1208 23.1997 66.6655 19.5251 63.5702 16.4298C60.4749 13.3345 56.8003 10.8792 52.7561 9.20402C48.7119 7.52886 44.3774 6.66667 40 6.66667ZM40 66.6667C32.9276 66.6667 26.1448 63.8572 21.1438 58.8562C16.1428 53.8552 13.3333 47.0724 13.3333 40C13.2303 39.0472 13.2303 38.0861 13.3333 37.1333C21.2732 33.6593 27.5577 27.2433 30.8667 19.2333C33.9406 23.5893 38.0156 27.1436 42.7488 29.5972C47.4821 32.0508 52.7353 33.3321 58.0667 33.3333C60.6 33.3333 63.1 33.0333 65.5667 32.4667C69.7333 46.6667 61.6667 61.4333 47.5333 65.5667C45 66.3 42.5333 66.6667 40 66.6667ZM0 6.66667C0 4.89856 0.702379 3.20286 1.95262 1.95262C3.20286 0.702379 4.89856 0 6.66667 0L20 0V6.66667H6.66667V20H0V6.66667ZM80 73.3333C80 75.1014 79.2976 76.7971 78.0474 78.0474C76.7971 79.2976 75.1014 80 73.3333 80H60V73.3333H73.3333V60H80V73.3333ZM6.66667 80C4.89856 80 3.20286 79.2976 1.95262 78.0474C0.702379 76.7971 0 75.1014 0 73.3333V60H6.66667V73.3333H20V80H6.66667ZM73.3333 0C75.1014 0 76.7971 0.702379 78.0474 1.95262C79.2976 3.20286 80 4.89856 80 6.66667V20H73.3333V6.66667H60V0H73.3333Z" fill="black"/>
</g>
<defs>
<clipPath id="clip0_6_4">
<rect width="80" height="80" fill="white"/>
</clipPath>
</defs>
</svg>
